<?xml version="1.0" standalone="no"?>
<!DOCTYPE svg PUBLIC "-//W3C//DTD SVG 20010904//EN"
 "http://www.w3.org/TR/2001/REC-SVG-20010904/DTD/svg10.dtd">
<svg version="1.0" xmlns="http://www.w3.org/2000/svg"
 width="26.000000pt" height="26.000000pt" viewBox="0 0 26.000000 26.000000"
 preserveAspectRatio="xMidYMid meet">

<g transform="translate(0.000000,26.000000) scale(0.100000,-0.100000)"
fill="#000000" stroke="none">
<path d="M68 234 c-37 -20 -48 -43 -48 -104 0 -62 11 -85 50 -105 54 -28 136
-11 160 34 13 25 13 117 0 142 -24 45 -109 62 -162 33z m133 -33 c42 -43 41
-101 -3 -144 -29 -29 -33 -30 -36 -13 -3 12 5 26 18 36 21 16 26 38 17 84 -3
17 -12 20 -67 20 -54 0 -64 -3 -68 -20 -9 -41 -3 -68 18 -84 13 -10 21 -24 18
-36 -3 -17 -7 -16 -36 13 -26 25 -32 39 -32 73 0 91 106 135 171 71z"/>
</g>
</svg>
